<svg xmlns="http://www.w3.org/2000/svg" width="1280" height="1190" viewBox="0 0 1280 1190" role="img" aria-labelledby="title description">
<title id="title">HRMate P2 Slice 2 — Live Team mobile design proposal</title>
<desc id="description">Two proposed mobile screens: a staff-only presence board with counters, department filters, employee rows and weekly-off selectors, and approved upcoming leaves. All displayed data is illustrative. Implementation awaits approval.</desc>
<defs>
  <clipPath id="screen1"><rect x="204" y="194" width="390" height="850" rx="28"/></clipPath>
  <clipPath id="screen2"><rect x="686" y="194" width="390" height="850" rx="28"/></clipPath>
</defs>
<rect x="0" y="0" width="1280" height="1190" rx="0" fill="#EDF2F6"/>
<rect x="0" y="0" width="1280" height="8" rx="0" fill="#0A1628"/>
<text x="76" y="54" font-family="DejaVu Sans, sans-serif" font-size="12" font-weight="700" text-anchor="start" fill="#047857" letter-spacing="1.5">HRMATE  /  P2 · SLICE 02</text>
<text x="76" y="104" font-family="DejaVu Sans, sans-serif" font-size="38" font-weight="700" text-anchor="start" fill="#0A1628">Live Team</text>
<text x="76" y="137" font-family="DejaVu Sans, sans-serif" font-size="15" font-weight="400" text-anchor="start" fill="#64748B">Web workflows. Mobile layout. Same permissions.</text>
<rect x="922" y="55" width="282" height="36" rx="18" fill="#FFFFFF" stroke="#D9E2EB" stroke-width="1"/>
<circle cx="940" cy="73" r="4" fill="#F59E0B"/>
<text x="955" y="78" font-family="DejaVu Sans, sans-serif" font-size="10" font-weight="700" text-anchor="start" fill="#475569">DESIGN PREVIEW · SAMPLE DATA</text>
<text x="1204" y="121" font-family="DejaVu Sans, sans-serif" font-size="11" font-weight="400" text-anchor="end" fill="#64748B">Approval pending — not a live app screen</text>
<rect x="191" y="191" width="416" height="870" rx="40" fill="#DFE5EB"/>
<rect x="194" y="184" width="410" height="870" rx="38" fill="#172333"/>
<rect x="197" y="187" width="404" height="864" rx="35" fill="#344256"/>
<rect x="199" y="189" width="400" height="860" rx="33" fill="#0A1628"/>
<g clip-path="url(#screen1)">
<rect x="204" y="194" width="390" height="850" rx="0" fill="#F8FAFC"/>
<rect x="204" y="194" width="390" height="84" rx="0" fill="#0A1628"/>
<text x="226" y="216" font-family="DejaVu Sans, sans-serif" font-size="11" font-weight="700" text-anchor="start" fill="#FFFFFF">17:15</text>
<rect x="524" y="212" width="3" height="4" rx="1" fill="#FFFFFF"/>
<rect x="529" y="209" width="3" height="7" rx="1" fill="#FFFFFF"/>
<rect x="534" y="206" width="3" height="10" rx="1" fill="#FFFFFF"/>
<rect x="539" y="203" width="3" height="13" rx="1" fill="#FFFFFF"/>
<rect x="555" y="206" width="19" height="9" rx="2" fill="none" stroke="#FFFFFF" stroke-width="1.2"/>
<rect x="557" y="208" width="14" height="5" rx="0.5" fill="#FFFFFF"/>
<rect x="575" y="209" width="2" height="3" rx="0.6" fill="#FFFFFF"/>
<path d="M234 243 l-8 8 l8 8 M226 251 h19" fill="none" stroke="#FFFFFF" stroke-width="1.8" stroke-linecap="round" stroke-linejoin="round"/>
<text x="261" y="258" font-family="DejaVu Sans, sans-serif" font-size="21" font-weight="700" text-anchor="start" fill="#FFFFFF">Live Team</text>
<path d="M570 251 a8 8 0 1 1 -3 -6 M571 239 v8 h-8" fill="none" stroke="#FFFFFF" stroke-width="1.8" stroke-linecap="round" stroke-linejoin="round"/>
<text x="220" y="307" font-family="DejaVu Sans, sans-serif" font-size="12" font-weight="400" text-anchor="start" fill="#64748B">Who’s on the floor right now</text>
<rect x="220" y="324" width="358" height="40" rx="14" fill="#E9EDF2"/>
<rect x="224" y="328" width="136" height="32" rx="11" fill="#DDE3EA"/>
<rect x="224" y="327" width="136" height="32" rx="11" fill="#FFFFFF"/>
<text x="292" y="348" font-family="DejaVu Sans, sans-serif" font-size="12" font-weight="700" text-anchor="middle" fill="#0A1628">Board</text>
<text x="453" y="348" font-family="DejaVu Sans, sans-serif" font-size="12" font-weight="700" text-anchor="middle" fill="#64748B">Upcoming Leaves</text>
<rect x="541" y="336" width="21" height="20" rx="10.0" fill="#FEF3C7"/>
<text x="551.5" y="349.5" font-family="DejaVu Sans, sans-serif" font-size="10" font-weight="700" text-anchor="middle" fill="#B45309">3</text>
<rect x="347" y="1028" width="104" height="4" rx="2" fill="#0A1628"/>
<rect x="220.0" y="382" width="83.5" height="72" rx="13" fill="#ECFDF5" stroke="#D1FAE5" stroke-width="1"/>
<text x="261.75" y="412" font-family="DejaVu Sans, sans-serif" font-size="24" font-weight="700" text-anchor="middle" fill="#059669">2</text>
<text x="261.75" y="430" font-family="DejaVu Sans, sans-serif" font-size="9" font-weight="700" text-anchor="middle" fill="#64748B">Punched</text>
<text x="261.75" y="443" font-family="DejaVu Sans, sans-serif" font-size="9" font-weight="700" text-anchor="middle" fill="#64748B">In</text>
<rect x="311.5" y="382" width="83.5" height="72" rx="13" fill="#F0F9FF" stroke="#E0F2FE" stroke-width="1"/>
<text x="353.25" y="412" font-family="DejaVu Sans, sans-serif" font-size="24" font-weight="700" text-anchor="middle" fill="#0284C7">1</text>
<text x="353.25" y="430" font-family="DejaVu Sans, sans-serif" font-size="9" font-weight="700" text-anchor="middle" fill="#64748B">Punched</text>
<text x="353.25" y="443" font-family="DejaVu Sans, sans-serif" font-size="9" font-weight="700" text-anchor="middle" fill="#64748B">Out</text>
<rect x="403.0" y="382" width="83.5" height="72" rx="13" fill="#F1F5F9" stroke="#E2E8F0" stroke-width="1"/>
<text x="444.75" y="412" font-family="DejaVu Sans, sans-serif" font-size="24" font-weight="700" text-anchor="middle" fill="#64748B">1</text>
<text x="444.75" y="430" font-family="DejaVu Sans, sans-serif" font-size="9" font-weight="700" text-anchor="middle" fill="#64748B">Not in</text>
<text x="444.75" y="443" font-family="DejaVu Sans, sans-serif" font-size="9" font-weight="700" text-anchor="middle" fill="#64748B">yet</text>
<rect x="494.5" y="382" width="83.5" height="72" rx="13" fill="#FAF5FF" stroke="#F3E8FF" stroke-width="1"/>
<text x="536.25" y="412" font-family="DejaVu Sans, sans-serif" font-size="24" font-weight="700" text-anchor="middle" fill="#9333EA">1</text>
<text x="536.25" y="430" font-family="DejaVu Sans, sans-serif" font-size="9" font-weight="700" text-anchor="middle" fill="#64748B">Shift</text>
<text x="536.25" y="443" font-family="DejaVu Sans, sans-serif" font-size="9" font-weight="700" text-anchor="middle" fill="#64748B">done</text>
<rect x="220" y="472" width="145" height="32" rx="16.0" fill="#0A1628"/>
<text x="292.5" y="491.85" font-family="DejaVu Sans, sans-serif" font-size="11" font-weight="700" text-anchor="middle" fill="#6EE7B7">All Departments</text>
<rect x="373" y="472" width="110" height="32" rx="16.0" fill="#E9EEF4"/>
<text x="428.0" y="491.85" font-family="DejaVu Sans, sans-serif" font-size="11" font-weight="700" text-anchor="middle" fill="#475569">Production</text>
<rect x="491" y="472" width="87" height="32" rx="16.0" fill="#E9EEF4"/>
<text x="534.5" y="491.85" font-family="DejaVu Sans, sans-serif" font-size="11" font-weight="700" text-anchor="middle" fill="#475569">Quality</text>
<rect x="220" y="526" width="358" height="416" rx="16" fill="#E9EEF3"/>
<rect x="220" y="524" width="358" height="416" rx="16" fill="#FFFFFF" stroke="#E2E8F0" stroke-width="1"/>
<circle cx="255" cy="558" r="19" fill="#E8F5F0"/>
<text x="255" y="564" font-family="DejaVu Sans, sans-serif" font-size="16" font-weight="700" text-anchor="middle" fill="#047857">G</text>
<circle cx="268" cy="572" r="4.5" fill="#10B981" stroke="#FFFFFF" stroke-width="2"/>
<text x="285" y="553" font-family="DejaVu Sans, sans-serif" font-size="13" font-weight="700" text-anchor="start" fill="#1E293B">Gurpreet Singh</text>
<text x="285" y="572" font-family="DejaVu Sans, sans-serif" font-size="10" font-weight="400" text-anchor="start" fill="#64748B">Production · General 08:00</text>
<rect x="513" y="540" width="49" height="21" rx="10.5" fill="#D1FAE5"/>
<text x="537.5" y="554.0" font-family="DejaVu Sans, sans-serif" font-size="10" font-weight="700" text-anchor="middle" fill="#047857">In</text>
<text x="237" y="606" font-family="DejaVu Sans, sans-serif" font-size="10" font-weight="400" text-anchor="start" fill="#64748B">IN 08:02 AM</text>
<rect x="479" y="588" width="84" height="27" rx="8" fill="#FFFBEB" stroke="#FDE68A" stroke-width="1"/>
<text x="491" y="606" font-family="DejaVu Sans, sans-serif" font-size="10" font-weight="700" text-anchor="start" fill="#B45309">Sun off</text>
<path d="M548 600 l3 3 l3 -3" fill="none" stroke="#B45309" stroke-width="1.6" stroke-linecap="round" stroke-linejoin="round"/>
<path d="M234 628 L564 628" fill="none" stroke="#EEF2F6" stroke-width="1" stroke-linecap="round"/>
<circle cx="255" cy="662" r="19" fill="#E8F5F0"/>
<text x="255" y="668" font-family="DejaVu Sans, sans-serif" font-size="16" font-weight="700" text-anchor="middle" fill="#047857">H</text>
<circle cx="268" cy="676" r="4.5" fill="#10B981" stroke="#FFFFFF" stroke-width="2"/>
<text x="285" y="657" font-family="DejaVu Sans, sans-serif" font-size="13" font-weight="700" text-anchor="start" fill="#1E293B">Harleen Kaur</text>
<text x="285" y="676" font-family="DejaVu Sans, sans-serif" font-size="10" font-weight="400" text-anchor="start" fill="#64748B">Quality · General 08:00</text>
<rect x="513" y="644" width="49" height="21" rx="10.5" fill="#D1FAE5"/>
<text x="537.5" y="658.0" font-family="DejaVu Sans, sans-serif" font-size="10" font-weight="700" text-anchor="middle" fill="#047857">In</text>
<text x="237" y="710" font-family="DejaVu Sans, sans-serif" font-size="10" font-weight="400" text-anchor="start" fill="#64748B">IN 07:56 AM</text>
<rect x="479" y="692" width="84" height="27" rx="8" fill="#FFFBEB" stroke="#FDE68A" stroke-width="1"/>
<text x="491" y="710" font-family="DejaVu Sans, sans-serif" font-size="10" font-weight="700" text-anchor="start" fill="#B45309">Mon off</text>
<path d="M548 704 l3 3 l3 -3" fill="none" stroke="#B45309" stroke-width="1.6" stroke-linecap="round" stroke-linejoin="round"/>
<path d="M234 732 L564 732" fill="none" stroke="#EEF2F6" stroke-width="1" stroke-linecap="round"/>
<circle cx="255" cy="766" r="19" fill="#E8F5F0"/>
<text x="255" y="772" font-family="DejaVu Sans, sans-serif" font-size="16" font-weight="700" text-anchor="middle" fill="#047857">R</text>
<circle cx="268" cy="780" r="4.5" fill="#0EA5E9" stroke="#FFFFFF" stroke-width="2"/>
<text x="285" y="761" font-family="DejaVu Sans, sans-serif" font-size="13" font-weight="700" text-anchor="start" fill="#1E293B">Ravi Kumar</text>
<text x="285" y="780" font-family="DejaVu Sans, sans-serif" font-size="10" font-weight="400" text-anchor="start" fill="#64748B">Production · General 07:00</text>
<rect x="457" y="748" width="43" height="21" rx="10.5" fill="#E0F2FE"/>
<text x="478.5" y="762.0" font-family="DejaVu Sans, sans-serif" font-size="10" font-weight="700" text-anchor="middle" fill="#0369A1">Out</text>
<rect x="505" y="748" width="57" height="21" rx="10.5" fill="#F3E8FF"/>
<text x="533.5" y="762.0" font-family="DejaVu Sans, sans-serif" font-size="10" font-weight="700" text-anchor="middle" fill="#7E22CE">✓ Done</text>
<text x="237" y="814" font-family="DejaVu Sans, sans-serif" font-size="10" font-weight="400" text-anchor="start" fill="#64748B">IN 07:00 AM · OUT 04:00 PM</text>
<rect x="479" y="796" width="84" height="27" rx="8" fill="#FFFBEB" stroke="#FDE68A" stroke-width="1"/>
<text x="491" y="814" font-family="DejaVu Sans, sans-serif" font-size="10" font-weight="700" text-anchor="start" fill="#B45309">Sun off</text>
<path d="M548 808 l3 3 l3 -3" fill="none" stroke="#B45309" stroke-width="1.6" stroke-linecap="round" stroke-linejoin="round"/>
<path d="M234 836 L564 836" fill="none" stroke="#EEF2F6" stroke-width="1" stroke-linecap="round"/>
<circle cx="255" cy="870" r="19" fill="#E8F5F0"/>
<text x="255" y="876" font-family="DejaVu Sans, sans-serif" font-size="16" font-weight="700" text-anchor="middle" fill="#047857">S</text>
<circle cx="268" cy="884" r="4.5" fill="#94A3B8" stroke="#FFFFFF" stroke-width="2"/>
<text x="285" y="865" font-family="DejaVu Sans, sans-serif" font-size="13" font-weight="700" text-anchor="start" fill="#1E293B">Simran Kaur</text>
<text x="285" y="884" font-family="DejaVu Sans, sans-serif" font-size="10" font-weight="400" text-anchor="start" fill="#64748B">Quality · General 08:00</text>
<rect x="478" y="852" width="84" height="21" rx="10.5" fill="#F1F5F9"/>
<text x="520.0" y="866.0" font-family="DejaVu Sans, sans-serif" font-size="10" font-weight="700" text-anchor="middle" fill="#64748B">Not in yet</text>
<text x="237" y="918" font-family="DejaVu Sans, sans-serif" font-size="10" font-weight="400" text-anchor="start" fill="#64748B">No punch yet</text>
<rect x="479" y="900" width="84" height="27" rx="8" fill="#FFFBEB" stroke="#FDE68A" stroke-width="1"/>
<text x="491" y="918" font-family="DejaVu Sans, sans-serif" font-size="10" font-weight="700" text-anchor="start" fill="#B45309">Tue off</text>
<path d="M548 912 l3 3 l3 -3" fill="none" stroke="#B45309" stroke-width="1.6" stroke-linecap="round" stroke-linejoin="round"/>
<text x="399" y="971" font-family="DejaVu Sans, sans-serif" font-size="11" font-weight="400" text-anchor="middle" fill="#94A3B8">Pull down to refresh</text>
</g>
<rect x="673" y="191" width="416" height="870" rx="40" fill="#DFE5EB"/>
<rect x="676" y="184" width="410" height="870" rx="38" fill="#172333"/>
<rect x="679" y="187" width="404" height="864" rx="35" fill="#344256"/>
<rect x="681" y="189" width="400" height="860" rx="33" fill="#0A1628"/>
<g clip-path="url(#screen2)">
<rect x="686" y="194" width="390" height="850" rx="0" fill="#F8FAFC"/>
<rect x="686" y="194" width="390" height="84" rx="0" fill="#0A1628"/>
<text x="708" y="216" font-family="DejaVu Sans, sans-serif" font-size="11" font-weight="700" text-anchor="start" fill="#FFFFFF">17:15</text>
<rect x="1006" y="212" width="3" height="4" rx="1" fill="#FFFFFF"/>
<rect x="1011" y="209" width="3" height="7" rx="1" fill="#FFFFFF"/>
<rect x="1016" y="206" width="3" height="10" rx="1" fill="#FFFFFF"/>
<rect x="1021" y="203" width="3" height="13" rx="1" fill="#FFFFFF"/>
<rect x="1037" y="206" width="19" height="9" rx="2" fill="none" stroke="#FFFFFF" stroke-width="1.2"/>
<rect x="1039" y="208" width="14" height="5" rx="0.5" fill="#FFFFFF"/>
<rect x="1057" y="209" width="2" height="3" rx="0.6" fill="#FFFFFF"/>
<path d="M716 243 l-8 8 l8 8 M708 251 h19" fill="none" stroke="#FFFFFF" stroke-width="1.8" stroke-linecap="round" stroke-linejoin="round"/>
<text x="743" y="258" font-family="DejaVu Sans, sans-serif" font-size="21" font-weight="700" text-anchor="start" fill="#FFFFFF">Live Team</text>
<path d="M1052 251 a8 8 0 1 1 -3 -6 M1053 239 v8 h-8" fill="none" stroke="#FFFFFF" stroke-width="1.8" stroke-linecap="round" stroke-linejoin="round"/>
<text x="702" y="307" font-family="DejaVu Sans, sans-serif" font-size="12" font-weight="400" text-anchor="start" fill="#64748B">Who’s on the floor right now</text>
<rect x="702" y="324" width="358" height="40" rx="14" fill="#E9EDF2"/>
<rect x="846" y="328" width="210" height="32" rx="11" fill="#DDE3EA"/>
<rect x="846" y="327" width="210" height="32" rx="11" fill="#FFFFFF"/>
<text x="774" y="348" font-family="DejaVu Sans, sans-serif" font-size="12" font-weight="700" text-anchor="middle" fill="#64748B">Board</text>
<text x="935" y="348" font-family="DejaVu Sans, sans-serif" font-size="12" font-weight="700" text-anchor="middle" fill="#0A1628">Upcoming Leaves</text>
<rect x="1023" y="336" width="21" height="20" rx="10.0" fill="#FEF3C7"/>
<text x="1033.5" y="349.5" font-family="DejaVu Sans, sans-serif" font-size="10" font-weight="700" text-anchor="middle" fill="#B45309">3</text>
<rect x="829" y="1028" width="104" height="4" rx="2" fill="#0A1628"/>
<circle cx="707" cy="397" r="3.5" fill="#10B981"/>
<text x="719" y="401" font-family="DejaVu Sans, sans-serif" font-size="12" font-weight="700" text-anchor="start" fill="#475569">Approved · Next 14 days</text>
<rect x="702" y="425" width="358" height="336" rx="16" fill="#E9EEF3"/>
<rect x="702" y="423" width="358" height="336" rx="16" fill="#FFFFFF" stroke="#E2E8F0" stroke-width="1"/>
<text x="718" y="452" font-family="DejaVu Sans, sans-serif" font-size="14" font-weight="700" text-anchor="start" fill="#1E293B">Gurpreet Singh</text>
<text x="718" y="472" font-family="DejaVu Sans, sans-serif" font-size="11" font-weight="400" text-anchor="start" fill="#64748B">Production</text>
<rect x="1006" y="440" width="38" height="25" rx="12.5" fill="#FEF3C7"/>
<text x="1025.0" y="456.35" font-family="DejaVu Sans, sans-serif" font-size="11" font-weight="700" text-anchor="middle" fill="#B45309">2d</text>
<rect x="718" y="500" width="14" height="13" rx="3" fill="none" stroke="#94A3B8" stroke-width="1.3"/>
<path d="M718 504 L732 504" fill="none" stroke="#94A3B8" stroke-width="1.3" stroke-linecap="round"/>
<path d="M722 498 L722 502" fill="none" stroke="#94A3B8" stroke-width="1.3" stroke-linecap="round"/>
<path d="M728 498 L728 502" fill="none" stroke="#94A3B8" stroke-width="1.3" stroke-linecap="round"/>
<text x="741" y="510" font-family="DejaVu Sans, sans-serif" font-size="11" font-weight="400" text-anchor="start" fill="#475569">28 Sep → 29 Sep</text>
<text x="1044" y="510" font-family="DejaVu Sans, sans-serif" font-size="11" font-weight="400" text-anchor="end" fill="#64748B">Earned Leave</text>
<path d="M718 535 L1044 535" fill="none" stroke="#EEF2F6" stroke-width="1" stroke-linecap="round"/>
<text x="718" y="564" font-family="DejaVu Sans, sans-serif" font-size="14" font-weight="700" text-anchor="start" fill="#1E293B">Simran Kaur</text>
<text x="718" y="584" font-family="DejaVu Sans, sans-serif" font-size="11" font-weight="400" text-anchor="start" fill="#64748B">Quality</text>
<rect x="1006" y="552" width="38" height="25" rx="12.5" fill="#FEF3C7"/>
<text x="1025.0" y="568.35" font-family="DejaVu Sans, sans-serif" font-size="11" font-weight="700" text-anchor="middle" fill="#B45309">1d</text>
<rect x="718" y="612" width="14" height="13" rx="3" fill="none" stroke="#94A3B8" stroke-width="1.3"/>
<path d="M718 616 L732 616" fill="none" stroke="#94A3B8" stroke-width="1.3" stroke-linecap="round"/>
<path d="M722 610 L722 614" fill="none" stroke="#94A3B8" stroke-width="1.3" stroke-linecap="round"/>
<path d="M728 610 L728 614" fill="none" stroke="#94A3B8" stroke-width="1.3" stroke-linecap="round"/>
<text x="741" y="622" font-family="DejaVu Sans, sans-serif" font-size="11" font-weight="400" text-anchor="start" fill="#475569">30 Sep → 30 Sep</text>
<text x="1044" y="622" font-family="DejaVu Sans, sans-serif" font-size="11" font-weight="400" text-anchor="end" fill="#64748B">Casual Leave</text>
<path d="M718 647 L1044 647" fill="none" stroke="#EEF2F6" stroke-width="1" stroke-linecap="round"/>
<text x="718" y="676" font-family="DejaVu Sans, sans-serif" font-size="14" font-weight="700" text-anchor="start" fill="#1E293B">Harleen Kaur</text>
<text x="718" y="696" font-family="DejaVu Sans, sans-serif" font-size="11" font-weight="400" text-anchor="start" fill="#64748B">Quality</text>
<rect x="1006" y="664" width="38" height="25" rx="12.5" fill="#FEF3C7"/>
<text x="1025.0" y="680.35" font-family="DejaVu Sans, sans-serif" font-size="11" font-weight="700" text-anchor="middle" fill="#B45309">2d</text>
<rect x="718" y="724" width="14" height="13" rx="3" fill="none" stroke="#94A3B8" stroke-width="1.3"/>
<path d="M718 728 L732 728" fill="none" stroke="#94A3B8" stroke-width="1.3" stroke-linecap="round"/>
<path d="M722 722 L722 726" fill="none" stroke="#94A3B8" stroke-width="1.3" stroke-linecap="round"/>
<path d="M728 722 L728 726" fill="none" stroke="#94A3B8" stroke-width="1.3" stroke-linecap="round"/>
<text x="741" y="734" font-family="DejaVu Sans, sans-serif" font-size="11" font-weight="400" text-anchor="start" fill="#475569">5 Oct → 6 Oct</text>
<text x="1044" y="734" font-family="DejaVu Sans, sans-serif" font-size="11" font-weight="400" text-anchor="end" fill="#64748B">Earned Leave</text>
<text x="881" y="793" font-family="DejaVu Sans, sans-serif" font-size="11" font-weight="400" text-anchor="middle" fill="#94A3B8">Only approved leave is shown</text>
</g>
<text x="204" y="1091" font-family="DejaVu Sans, sans-serif" font-size="12" font-weight="700" text-anchor="start" fill="#059669">01</text>
<text x="232" y="1091" font-family="DejaVu Sans, sans-serif" font-size="14" font-weight="700" text-anchor="start" fill="#0A1628">Presence board</text>
<text x="204" y="1114" font-family="DejaVu Sans, sans-serif" font-size="11" font-weight="400" text-anchor="start" fill="#64748B">Tap a name for its profile · Change weekly off inline</text>
<text x="686" y="1091" font-family="DejaVu Sans, sans-serif" font-size="12" font-weight="700" text-anchor="start" fill="#059669">02</text>
<text x="714" y="1091" font-family="DejaVu Sans, sans-serif" font-size="14" font-weight="700" text-anchor="start" fill="#0A1628">Upcoming leaves</text>
<text x="686" y="1114" font-family="DejaVu Sans, sans-serif" font-size="11" font-weight="400" text-anchor="start" fill="#64748B">Approved requests overlapping the next 14 days</text>
<path d="M76 1142 L1204 1142" fill="none" stroke="#D8E1EA" stroke-width="1" stroke-linecap="round"/>
<text x="76" y="1170" font-family="DejaVu Sans, sans-serif" font-size="10" font-weight="700" text-anchor="start" fill="#475569" letter-spacing="1">HR / ADMIN ONLY</text>
<text x="640" y="1170" font-family="DejaVu Sans, sans-serif" font-size="10" font-weight="700" text-anchor="middle" fill="#475569" letter-spacing="1">ENGLISH + PUNJABI</text>
<text x="1204" y="1170" font-family="DejaVu Sans, sans-serif" font-size="10" font-weight="700" text-anchor="end" fill="#475569" letter-spacing="1">MORE → LIVE TEAM</text>
</svg>